<?xml version="1.0" encoding="UTF-8" ?>
<!DOCTYPE svg PUBLIC "-//W3C//DTD SVG 1.1//EN" "http://www.w3.org/Graphics/SVG/1.1/DTD/svg11.dtd">
<svg width="154pt" height="212pt" viewBox="0 0 154 212" version="1.1" xmlns="http://www.w3.org/2000/svg">
<path fill="#ffffff" stroke="#ffffff" stroke-width="0.09375" opacity="1.00" d=" M 0.00 0.00 L 153.73 0.00 C 153.95 10.30 153.89 20.61 153.76 30.92 C 127.85 30.68 101.92 30.88 76.00 30.81 C 59.80 30.99 43.01 31.46 27.84 37.80 C 16.57 42.52 7.79 51.30 0.00 60.45 L 0.00 0.00 Z" />
<path fill="#ffffff" stroke="#ffffff" stroke-width="0.09375" opacity="1.00" d=" M 18.81 78.78 C 32.89 62.39 54.27 52.23 75.96 52.48 C 101.98 52.48 127.99 52.43 154.00 52.51 L 154.00 82.73 C 127.67 83.10 101.31 82.69 74.98 82.93 C 54.47 83.62 35.42 99.49 31.84 119.81 C 30.45 127.23 30.98 134.80 30.91 142.30 C 20.60 142.29 10.30 142.29 0.00 142.30 L 0.00 125.24 C 1.05 108.27 7.59 91.61 18.81 78.78 Z" />
<path fill="#ffffff" stroke="#ffffff" stroke-width="0.09375" opacity="1.00" d=" M 76.90 104.94 C 102.60 105.15 128.31 104.80 154.00 105.13 L 154.00 138.27 C 153.16 157.11 145.37 175.64 132.10 189.08 C 118.23 203.39 98.49 211.93 78.55 212.00 L 76.90 212.00 C 76.87 201.85 76.89 191.70 76.89 181.55 C 87.39 181.42 97.89 177.79 106.04 171.13 C 116.68 162.59 123.19 149.15 122.96 135.46 C 107.61 135.48 92.25 135.46 76.89 135.47 C 76.90 125.29 76.88 115.11 76.90 104.94 Z" />
</svg>
